# xmcd
#
# Track frame offsets:
#	150
#	900
#	1650
#	2400
#	3150
#	3900
#	4650
#	5400
#	6150
#	6900
#	7650
#	230417
#
# Disc length: 4440 seconds
#
# Revision: 1
# Processed by: cddbd v1.5.1PL0 Copyright (c) Steve Scherf et al.
# Submitted via: CDex 1.50Beta5
#
DISCID=5011560c
DTITLE=Nicol将メ Fabi - La Cura Del Tempo
DYEAR=2003
DGENRE=Pop
TTITLE0=宵イ Non 宵イ
TTITLE1=Il Negozio Di Antiquariato
TTITLE2=Mimosa
TTITLE3=Offeso
TTITLE4=Nel Centro
TTITLE5=Ora E Qui
TTITLE6=Senza Prudenza
TTITLE7=Lentamente
TTITLE8=Essere Speciale
TTITLE9=Quello Che Volevo
TTITLE10=Risveglio
TTITLE11=Untitled 12
EXTD=
EXTT0=
EXTT1=
EXTT2=
EXTT3=
EXTT4=
EXTT5=
EXTT6=
EXTT7=
EXTT8=
EXTT9=
EXTT10=
EXTT11=
PLAYORDER=
